<?xml version="1.0" encoding="UTF-8"?>
<svg id="Layer_2" data-name="Layer 2" xmlns="http://www.w3.org/2000/svg" viewBox="0 0 168.84 63.59">
  <g id="Layer_1-2" data-name="Layer 1">
    <g>
      <path d="M.27,27.35h2.49c1.64,0,2.42-.74,2.42-2.88V8.38l-.04-2.84h6.97l-.04,2.84v17.18c0,5.92-2.42,7.99-8.18,7.99H.27v-6.19Z"/>
      <path d="M32.88,24.62c0,5.03-1.68,8.77-7.6,8.77h-9.51l.04-2.84V8.38l-.04-2.84h9.51c5.73,0,7.56,3.39,7.6,8.77v10.32ZM25.95,14.61c0-1.83-.04-3.08-1.91-3.08h-1.29v15.85h1.29c1.87,0,1.91-1.25,1.91-3.08v-9.7Z"/>
      <path d="M40.71,5.53h6.93l2.03,12.5h.19l2.1-12.5h5.42l2.14,12.5h.19l2.06-12.5h6.54l-5.34,27.85h-6.51l-1.91-11.76h-.19l-1.87,11.76h-6.51l-5.3-27.85Z"/>
      <path d="M77.18,5.53l-.04,2.84v22.17l.04,2.84h-7.01l.04-2.84V8.38l-.04-2.84h7.01Z"/>
      <path d="M81.19,30.54V8.38l-.04-2.84h5.77l5.06,12.43h.19v-9.23l-.04-3.19h6.39l-.04,2.84v22.17l.04,2.84h-5.8l-5.03-12.39h-.19v9.19l.04,3.19h-6.39l.04-2.84Z"/>
      <path d="M119.6,24.62c0,5.03-1.68,8.77-7.6,8.77h-9.51l.04-2.84V8.38l-.04-2.84h9.51c5.73,0,7.56,3.39,7.6,8.77v10.32ZM112.67,14.61c0-1.83-.04-3.08-1.91-3.08h-1.29v15.85h1.29c1.87,0,1.91-1.25,1.91-3.08v-9.7Z"/>
      <path d="M130.9,33.97c-8.34,0-8.49-6.74-8.49-11.76v-5.65c0-5.1.16-11.61,8.49-11.61s8.53,6.15,8.53,11.8v5.45c0,5.61-.16,11.76-8.53,11.76ZM129.3,23.65c0,2.69,0,4.13,1.6,4.13s1.64-1.44,1.64-4.13v-8.38c0-2.69,0-4.13-1.64-4.13s-1.6,1.44-1.6,4.13v8.38Z"/>
      <path d="M140.68,5.53h6.93l2.03,12.5h.19l2.1-12.5h5.42l2.14,12.5h.2l2.06-12.5h6.54l-5.34,27.85h-6.51l-1.91-11.76h-.19l-1.87,11.76h-6.51l-5.3-27.85Z"/>
    </g>
    <g>
      <path d="M.94,52.19c-.09.23-.21.26-.38.09-.33-.35-.56-1.05-.21-2.32.59-2.13,2.79-6.59,4.85-9.82-.8-.07-1.22-.42-1.5-.94-.12-.23-.05-.35.26-.4,1.97-.23,3.73-1.2,5.3-1.27,1.2-.05,2.23.3,2.79,1.9.49,1.41.16,2.84-.73,4.03-1.27,1.69-3.8,3.16-6.4,3.77.89,1.1,1.73,2.23,2.23,3.21.33.63.42,1.43.12,1.9-.12.19-.23.26-.38.05-1.55-2.11-2.77-3.63-3.87-4.85-.63,1.24-1.31,2.72-2.09,4.64ZM5.74,42.65c-.63,1.12-1.22,2.11-1.85,3.26,5.18-1.15,7.83-4.57,7.15-6.23-.52-1.31-2.86-.09-4.41.33,0,.66-.26,1.48-.89,2.65Z" fill="#231f20"/>
      <path d="M13.25,51.82c1.95.09,3.66-1.78,4.66-3.33.12-.19.3-.19.4.02.09.19.02.84-.4,1.45-.98,1.43-2.79,2.51-4.59,2.53-2.98.05-4.01-2.88-2.48-5.91s3.91-4.24,5.09-3.56c.59.35,1.01.7,1.38,1.22.42.56.23,1.99-.75,3.19-1.15,1.41-2.72,2.02-4.36.68-.75,2.16-.19,3.63,1.05,3.7ZM15.19,46.43c.75-.98,1.27-2.2.94-2.46-.49-.4-2.44,1.01-3.54,3.23-.07.14-.14.28-.19.4,1.15.73,2.11-.28,2.79-1.17Z" fill="#231f20"/>
      <path d="M21.03,44.25c.12-.91.35-1.36.84-1.8.52-.47,1.05-.56,1.27-.35.23.23.12.49-.19,1.03-.09.14-.16.28-.26.45-.16,2.16.28,3.98.21,5.6-.05.91-.21,1.9-1.05,2.46,1.57-.59,2.55-1.99,3.14-3.26.12-.26.35-.19.45,0,.09.21.07.82-.33,1.55-.89,1.62-2.48,2.51-4.15,2.58-1.36.05-2.67-.3-3.47-1.76-.56-1.05-.49-2.6.3-3.26.28-.23.47-.14.49.23.02.19.02.38.05.56.96-1.31,2.02-2.84,2.7-4.03ZM18.54,49.55c.35,1.36,1.03,2.32,1.8,2.09,1.08-.33.73-4.01.63-5.88-.68,1.24-1.55,2.53-2.44,3.8Z" fill="#231f20"/>
      <path d="M25.91,42.4c-.23-.33-.09-.49.26-.47.66.02,1.31-.02,1.95-.09.73-1.29,1.38-2.39,1.78-2.91.21-.3.45-.28.56,0,.26.66.26,1.43-.3,2.65.91-.02,1.27.4,1.45.7.16.28.07.45-.28.45-.52-.07-1.24,0-1.83.09-.91,1.57-2.25,3.84-3.14,5.81-.77,1.71-.52,3.16.47,3.21,1.05.05,2.39-1.62,3.26-3.38.14-.28.4-.33.49,0,.12.38,0,.8-.23,1.34-.3.68-1.85,2.74-3.73,2.67-1.55-.05-2.79-1.78-1.66-4.48.49-1.17,1.48-3.14,2.48-4.99-.8,0-1.34-.35-1.52-.61Z" fill="#231f20"/>
      <path d="M41.61,52.55c-1.8-.09-2.53-1.66-1.95-3.59.47-1.57,1.95-3.3,2.93-4.45-1.05.68-2.09.91-2.84.91-.66,1.05-1.62,1.85-2.91,1.9-.47,1.99-1.92,4.41-3.66,4.97-.84.28-2.06.23-2.98-1.01-1.01-1.38-.66-3.42.35-5.27.89-1.62,2.37-2.93,3.77-3.05.7-.07,1.08.16,1.57.8.56.73,1.24.87,1.12,2.58,0,.12-.05.23-.05.38.66-.12,1.34-.56,1.83-1.45-1.73-.75.56-3.84,1.5-3.87.82-.02.4,1.69-.07,2.93.82-.12,1.64-.52,2.53-1.12.3-.21.52-.28.7-.05.42.49,1.01,1.59.3,2.39-1.1,1.24-2.23,2.84-2.65,4.08-.45,1.29-.16,2.2.59,2.25.94.07,2.13-1.5,2.88-3.21.09-.21.26-.26.35-.05.12.28.21.91-.07,1.52-.63,1.41-1.99,2.48-3.28,2.41ZM33.81,44.72c-.63.54-1.29,1.31-1.8,2.2-1.01,1.78-1.34,3.91-.73,4.45s2.06-.3,3.23-2.44c.38-.7.66-1.34.82-1.92-.91-.52-1.5-1.45-1.52-2.3ZM35.66,44.69c-.09-.77-.61-.59-.7.09-.07.59.14,1.17.59,1.55.14-.68.16-1.24.12-1.64Z" fill="#231f20"/>
      <path d="M52.79,43.08c.21-.3.4-.35.56-.14.35.42.54,1.43-.02,2.6-.52,1.05-1.69,2.81-2.25,4.05-.59,1.31-.61,2.32.19,2.27.96-.05,2.25-1.64,3.07-3.26.12-.21.28-.23.38-.02s.09.8-.21,1.45c-.61,1.29-2.09,2.58-3.38,2.51-1.27-.07-1.92-.82-1.92-1.92-.75.96-1.8,1.83-2.93,1.83-2.18,0-2.62-2.98-.68-5.81,1.9-2.77,3.75-3.82,4.92-3.82,1.01,0,1.48.77,1.43,1.69.3-.56.59-1.05.84-1.43ZM50.92,44.04c-.75-.07-2.46,1.45-3.75,3.54-1.24,2.02-1.55,4.08-.63,4.1.96.02,2.18-1.48,3.38-3.54,1.48-2.58,1.69-4.03,1.01-4.1Z" fill="#231f20"/>
      <path d="M55.3,42.4c-.23-.33-.09-.49.26-.47.66.02,1.31-.02,1.95-.09.73-1.29,1.38-2.39,1.78-2.91.21-.3.45-.28.56,0,.26.66.26,1.43-.3,2.65.91-.02,1.27.4,1.45.7.16.28.07.45-.28.45-.52-.07-1.24,0-1.83.09-.91,1.57-2.25,3.84-3.14,5.81-.77,1.71-.52,3.16.47,3.21,1.05.05,2.39-1.62,3.26-3.38.14-.28.4-.33.49,0,.12.38,0,.8-.23,1.34-.3.68-1.85,2.74-3.73,2.67-1.55-.05-2.79-1.78-1.66-4.48.49-1.17,1.48-3.14,2.48-4.99-.8,0-1.34-.35-1.52-.61Z" fill="#231f20"/>
      <path d="M58.96,49.05c.59-1.71,2.13-4.48,3-5.7.21-.28.38-.35.56-.14.35.38.54,1.38-.02,2.55-.49,1.03-1.48,2.62-1.97,3.8-.56,1.36-.52,2.27.23,2.23,1.05-.05,2.34-1.59,3.05-3.21.12-.21.28-.19.38,0,.19.38.12.87-.16,1.45-.7,1.45-2.18,2.44-3.49,2.44-1.78,0-2.23-1.5-1.57-3.42ZM64.19,42.94c-.3.33-.96.26-1.31-.35-.38-.63-.26-1.34.12-1.73s1.05-.12,1.36.52c.3.61.14,1.24-.16,1.57Z" fill="#231f20"/>
      <path d="M78.21,52.52c-1.95,0-2.44-1.45-1.76-3.45.8-2.3,2.84-4.78,2.44-4.92-.28-.09-1.59.52-3.09,2.16-1.36,1.48-2.46,3.73-3.42,5.93-.07.16-.23.3-.45.07-.42-.47-.59-1.22-.19-2.39.26-.73.77-1.95,1.48-3.19-.63.42-1.36.63-2.18.59-.47,1.99-1.97,4.41-3.7,4.97-.84.28-2.04.26-2.95-.98-1.03-1.38-.68-3.45.38-5.27.91-1.59,2.32-2.93,3.73-3.05.7-.07,1.1.14,1.57.77.56.75,1.27.89,1.12,2.58,0,.12,0,.28-.02.42,1.48-.02,3-1.73,4.27-3.66.16-.26.35-.26.49-.05.35.59.35,1.38.09,2.2,1.05-1.1,2.6-2.37,3.4-2.27.77.09,1.5,1.29.91,2.48-.52,1.05-1.62,2.74-2.18,3.96-.61,1.34-.49,2.39.4,2.37.94-.02,2.04-1.55,2.95-3.23.09-.19.33-.19.4,0,.12.28.12.75-.23,1.48-.63,1.31-2.06,2.48-3.45,2.48ZM67.99,44.69c-.66.54-1.31,1.36-1.83,2.23-1.03,1.76-1.36,3.94-.73,4.45s2.09-.3,3.21-2.41c.4-.75.68-1.41.87-1.99-.82-.45-1.5-1.36-1.52-2.27ZM69.81,44.69c-.12-.75-.61-.61-.7.07-.07.52.09,1.2.56,1.57.14-.66.21-1.22.14-1.64Z" fill="#231f20"/>
      <path d="M94.78,43.08c.21-.3.4-.35.56-.14.35.42.54,1.43-.02,2.6-.52,1.05-1.69,2.81-2.25,4.05-.59,1.31-.61,2.32.19,2.27.96-.05,2.25-1.64,3.07-3.26.12-.21.28-.23.38-.02s.09.8-.21,1.45c-.61,1.29-2.09,2.58-3.38,2.51-1.27-.07-1.92-.82-1.92-1.92-.75.96-1.8,1.83-2.93,1.83-2.18,0-2.62-2.98-.68-5.81,1.9-2.77,3.75-3.82,4.92-3.82,1.01,0,1.48.77,1.43,1.69.3-.56.59-1.05.84-1.43ZM92.91,44.04c-.75-.07-2.46,1.45-3.75,3.54-1.24,2.02-1.55,4.08-.63,4.1.96.02,2.18-1.48,3.38-3.54,1.48-2.58,1.69-4.03,1.01-4.1Z" fill="#231f20"/>
      <path d="M103.06,42.94c.77.12,1.5,1.27.91,2.48-.49,1.03-1.64,2.77-2.18,3.98-.61,1.36-.47,2.46.38,2.41.96-.05,2.11-1.59,3-3.23.12-.21.28-.21.4-.02.16.26.12.8-.21,1.48-.63,1.31-2.11,2.51-3.47,2.51-1.99,0-2.46-1.45-1.78-3.49.77-2.3,2.84-4.78,2.41-4.97-.23-.09-1.59.56-3.09,2.2-1.38,1.5-2.41,3.75-3.42,5.95-.09.21-.23.3-.45.09-.47-.47-.61-1.24-.23-2.41.47-1.48,2.27-4.73,3.75-6.91.16-.26.35-.23.49,0,.35.59.33,1.38.07,2.23,1.05-1.12,2.65-2.41,3.42-2.3Z" fill="#231f20"/>
      <path d="M111.52,51.87c.96-.05,2.23-1.62,3.05-3.23.12-.21.28-.21.38-.02.09.21.12.82-.19,1.45-.63,1.29-2.09,2.53-3.38,2.46-1.27-.07-1.9-.77-1.9-1.88-.75.94-1.8,1.8-2.91,1.8-2.18,0-2.6-2.98-.68-5.79,1.85-2.72,3.73-3.77,4.9-3.77.96,0,1.43.73,1.41,1.59,1.27-2.41,3.05-5.6,3.89-6.8.23-.33.45-.3.56,0,.33.77.26,1.78-.73,3.54-1.12,2.02-3.38,5.88-4.55,8.37-.63,1.36-.66,2.32.14,2.27ZM107.44,47.6c-1.27,2.02-1.52,4.05-.61,4.08.94.02,2.2-1.36,3.3-3.49,1.36-2.6,1.71-4.08,1.03-4.1-.73-.02-2.44,1.45-3.73,3.52Z" fill="#231f20"/>
      <path d="M120.39,52.19c-.09.23-.21.26-.38.09-.33-.35-.56-1.05-.21-2.32.59-2.13,2.79-6.59,4.85-9.82-.8-.07-1.22-.42-1.5-.94-.12-.23-.05-.35.26-.4,1.97-.23,3.73-1.2,5.3-1.27,1.2-.05,2.23.3,2.79,1.9.49,1.41.16,2.84-.73,4.03-1.27,1.69-3.8,3.16-6.4,3.77.89,1.1,1.73,2.23,2.23,3.21.33.63.42,1.43.12,1.9-.12.19-.23.26-.38.05-1.55-2.11-2.77-3.63-3.87-4.85-.63,1.24-1.31,2.72-2.09,4.64ZM125.19,42.65c-.63,1.12-1.22,2.11-1.85,3.26,5.18-1.15,7.83-4.57,7.15-6.23-.52-1.31-2.86-.09-4.41.33,0,.66-.26,1.48-.89,2.65Z" fill="#231f20"/>
      <path d="M132.69,51.82c1.95.09,3.66-1.78,4.66-3.33.12-.19.3-.19.4.02.09.19.02.84-.4,1.45-.98,1.43-2.79,2.51-4.59,2.53-2.98.05-4.01-2.88-2.48-5.91s3.91-4.24,5.09-3.56c.59.35,1.01.7,1.38,1.22.42.56.23,1.99-.75,3.19-1.15,1.41-2.72,2.02-4.36.68-.75,2.16-.19,3.63,1.05,3.7ZM134.64,46.43c.75-.98,1.27-2.2.94-2.46-.49-.4-2.44,1.01-3.54,3.23-.07.14-.14.28-.19.4,1.15.73,2.11-.28,2.79-1.17Z" fill="#231f20"/>
      <path d="M146.34,48.61c.14-.33.4-.23.45,0,.05.21.09.82-.3,1.55-.89,1.62-2.48,2.39-4.17,2.51-1.5.09-2.48-.12-3.3-.87-.49-.45-.73-.98-.8-1.57-1.1,2.02-2.3,4.41-3.42,7.01-.09.21-.26.26-.4.05-.35-.49-.47-1.15-.02-2.58.7-2.27,4.64-9.7,6.12-11.67.23-.3.45-.26.56.02.12.3.16.66.14,1.05,1.03-.89,2.41-1.55,3.42-.49,1.12,1.2.61,3.28-.26,5.2-.7,1.55-1.57,2.67-2.46,3.21,2.3-.14,3.7-1.83,4.45-3.42ZM139.47,51.3c.75.61,2.27-1.1,3.38-3.35.91-1.88,1.17-3.82.59-4.1-.56-.28-2.02.89-3.12,2.7-.26.42-.52.84-.8,1.34-.59,1.48-.7,2.88-.05,3.42Z" fill="#231f20"/>
      <path d="M154.4,43.08c.21-.3.4-.35.56-.14.35.42.54,1.43-.02,2.6-.52,1.05-1.69,2.81-2.25,4.05-.59,1.31-.61,2.32.19,2.27.96-.05,2.25-1.64,3.07-3.26.12-.21.28-.23.38-.02s.09.8-.21,1.45c-.61,1.29-2.09,2.58-3.38,2.51-1.27-.07-1.92-.82-1.92-1.92-.75.96-1.8,1.83-2.93,1.83-2.18,0-2.62-2.98-.68-5.81,1.9-2.77,3.75-3.82,4.92-3.82,1.01,0,1.48.77,1.43,1.69.3-.56.59-1.05.84-1.43ZM152.53,44.04c-.75-.07-2.46,1.45-3.75,3.54-1.24,2.02-1.55,4.08-.63,4.1.96.02,2.18-1.48,3.38-3.54,1.48-2.58,1.69-4.03,1.01-4.1Z" fill="#231f20"/>
      <path d="M166.57,43.19c.28-.21.52-.3.7-.07.42.49.98,1.59.3,2.37-1.1,1.27-2.25,2.86-2.65,4.1-.42,1.27-.16,2.25.59,2.27.94.02,2.13-1.5,2.88-3.26.09-.21.26-.21.35,0,.12.26.16.84-.12,1.52-.59,1.41-1.99,2.39-3.28,2.37-1.78-.05-2.51-1.64-1.9-3.54.49-1.59,1.97-3.38,2.98-4.5-1.05.7-2.11.94-2.88.94-1.45,3.33-3.8,6.77-6.35,7.05-1.8.19-2.27-1.48-1.66-3.4.7-2.18,2.53-5.02,3.02-5.7.21-.28.38-.35.56-.14.35.38.49,1.41-.02,2.58-.45,1.03-1.41,2.37-2.02,3.84-.56,1.34-.49,2.23.26,2.13,1.52-.19,3.98-2.88,5.3-6.52-1.8-.68.49-3.87,1.48-3.89.75-.02.45,1.45-.12,2.93.84-.09,1.69-.49,2.58-1.1ZM160.78,42.91c-.28.35-.96.28-1.31-.35s-.26-1.31.12-1.71,1.05-.12,1.36.52c.28.59.09,1.22-.16,1.55Z" fill="#231f20"/>
    </g>
  </g>
</svg>